<?xml version="1.0" encoding="utf-8"?>
<svg xmlns="http://www.w3.org/2000/svg"
  xmlns:xlink="http://www.w3.org/1999/xlink">
  <symbol fill="none" viewBox="0 0 24 24" stroke-width="1.5" stroke="currentColor" id="arrow-right"
    xmlns="http://www.w3.org/2000/svg">
    <path stroke-linecap="round" stroke-linejoin="round" d="M13.5 4.5 21 12m0 0-7.5 7.5M21 12H3" />
  </symbol>
  <symbol fill="none" viewBox="0 0 24 24" stroke-width="1.5" stroke="currentColor" id="bolt"
    xmlns="http://www.w3.org/2000/svg">
    <path stroke-linecap="round" stroke-linejoin="round"
      d="m3.75 13.5 10.5-11.25L12 10.5h8.25L9.75 21.75 12 13.5H3.75Z" />
  </symbol>
  <symbol fill="none" viewBox="0 0 24 24" stroke-width="1.5" stroke="currentColor" id="moon"
    xmlns="http://www.w3.org/2000/svg">
    <path stroke-linecap="round" stroke-linejoin="round"
      d="M21.752 15.002A9.72 9.72 0 0 1 18 15.75 9.75 9.75 0 0 1 8.25 6c0-1.33.266-2.597.748-3.752A9.753 9.753 0 0 0 3 11.25 9.75 9.75 0 0 0 12.75 21a9.753 9.753 0 0 0 9.002-5.998Z" />
  </symbol>
</svg>